<?xml version="1.0" encoding="UTF-8" standalone="no"?>
<!DOCTYPE svg PUBLIC "-//W3C//DTD SVG 1.1//EN" "http://www.w3.org/Graphics/SVG/1.1/DTD/svg11.dtd">
<svg width="100%" height="100%" viewBox="0 0 870 870" version="1.1" xmlns="http://www.w3.org/2000/svg" xmlns:xlink="http://www.w3.org/1999/xlink" xml:space="preserve" xmlns:serif="http://www.serif.com/" style="fill-rule:evenodd;clip-rule:evenodd;stroke-linejoin:round;stroke-miterlimit:2;">
    <g transform="matrix(1,0,0,1,-1497.32,-566.929)">
        <g>
            <path d="M1526.62,737.64C1498.02,709.04 1489.46,666.028 1504.94,628.661C1520.42,591.293 1556.88,566.929 1597.33,566.929L2266.46,566.929C2292.98,566.929 2318.41,577.465 2337.17,596.218C2355.92,614.972 2366.46,640.407 2366.46,666.929L2366.46,1336.06C2366.46,1376.51 2342.09,1412.97 2304.72,1428.45C2267.36,1443.92 2224.35,1435.37 2195.75,1406.77C2009.44,1220.47 1712.92,923.943 1526.62,737.64Z" style="fill:rgb(66,135,245);"/>
            <g transform="matrix(-0.5,-5.89806e-17,5.89806e-17,-0.5,2680.55,1719.53)">
                <path d="M1526.62,737.64C1498.02,709.04 1489.46,666.028 1504.94,628.661C1520.42,591.293 1556.88,566.929 1597.33,566.929C1810.94,566.929 2112,566.929 2266.46,566.929C2292.98,566.929 2318.41,577.465 2337.17,596.218C2355.92,614.972 2366.46,640.407 2366.46,666.929L2366.46,1336.06C2366.46,1376.51 2342.09,1412.97 2304.72,1428.45C2267.36,1443.92 2224.35,1435.37 2195.75,1406.77C2009.44,1220.47 1712.92,923.943 1526.62,737.64Z" style="fill:rgb(66,135,245);"/>
            </g>
        </g>
    </g>
</svg>
