<?xml version="1.0" encoding="UTF-8"?>
<svg xmlns="http://www.w3.org/2000/svg" viewBox="62.36 68.51 407.65 93.57">
  <defs>
    <style>
      .cls-1 {
        fill: #299bd7;
      }

      .cls-2 {
        fill: #010101;
      }

      .cls-3 {
        fill: #6bb332;
      }

      .cls-4 {
        fill: #212429;
      }
    </style>
  </defs>
  <!-- Generator: Adobe Illustrator 28.7.1, SVG Export Plug-In . SVG Version: 1.2.0 Build 142)  -->
  <g>
    <g id="Ebene_1">
      <path class="cls-4" d="M152.11,124.57v-44.85h17.19c9.76,0,14.21,7.48,14.21,14.97s-4.45,14.92-14.21,14.92h-7.13v14.97h-10.06ZM162.22,89.23v11.02h6.62c3.34,0,4.5-2.88,4.5-5.51s-1.21-5.46-4.5-5.46h-6.62v-.05Z"/>
      <path class="cls-4" d="M193.57,124.57v-44.85h10.21v35.34h14.97v9.51h-25.18Z"/>
      <path class="cls-4" d="M256.02,114.31h-13.05l-3.49,10.26h-10.77l15.27-44.75h10.92l15.22,44.75h-10.67l-3.44-10.26ZM245.7,104.95h7.74l-4.05-14.76-3.69,14.76Z"/>
      <path class="cls-4" d="M313.66,114.61c-3.59,6.12-10.06,9.86-17.14,9.96-11.33,0-20.53-10.06-20.53-22.3s9.2-22.35,20.53-22.35c7.08.1,13.6,3.89,17.19,9.96.71-.56-8.14,6.12-8.14,6.12-1.82-3.34-5.26-5.41-9.05-5.51-5.97,0-10.62,5.26-10.62,11.73s4.65,11.68,10.62,11.68c3.79-.05,7.28-2.12,9.1-5.41l8.04,6.12Z"/>
      <path class="cls-4" d="M324.83,124.57v-44.85h26.95v9.51h-16.89v8.6h14.82v9.3h-14.82v7.94h16.89v9.51h-26.95s0,0,0,0Z"/>
      <path class="cls-4" d="M363.26,89.28v-9.51h31.45v9.51h-10.72v35.29h-10.06v-35.29h-10.67Z"/>
      <path class="cls-4" d="M406.24,124.57v-44.85h26.95v9.51h-16.89v8.6h14.82v9.3h-14.82v7.94h16.89v9.51h-26.95s0,0,0,0Z"/>
      <path class="cls-4" d="M444.67,124.57v-44.85h10.21v35.34h14.97v9.51h-25.18Z"/>
      <g>
        <path id="Pfad_2507" class="cls-1" d="M95.98,135.75c-18.57,0-33.62-15.05-33.62-33.62,0-18.57,15.05-33.62,33.62-33.62,18.57,0,33.62,15.05,33.62,33.62-.02,18.56-15.06,33.6-33.62,33.62ZM95.98,87.75c-7.94,0-14.38,6.44-14.38,14.38s6.44,14.38,14.38,14.38,14.38-6.44,14.38-14.38c0-7.94-6.44-14.37-14.38-14.38h0Z"/>
        <rect id="Rechteck_118" class="cls-3" x="62.36" y="102.13" width="19.25" height="44.79"/>
      </g>
      <g>
        <path class="cls-2" d="M286.77,153.08h-6.57l-1.68,3.71h-2.53l7.65-16.27,7.28,16.27h-2.53l-1.61-3.71ZM285.83,150.87l-2.28-5.21-2.37,5.21h4.65Z"/>
        <path class="cls-2" d="M305.46,148.41h7.63v.16c0,1.87-.67,4.7-2.37,6.47-1.71,1.77-3.66,2.1-5.48,2.1s-3.82-.3-5.62-2.14c-.9-.92-2.26-2.79-2.26-5.85,0-2.51.92-4.52,2.21-5.83,1.89-1.96,4.22-2.24,6.04-2.24,1.27,0,2.88.21,4.31,1.15,1.04.69,1.94,1.77,2.49,2.74l-3.2,1.73c-.3-.6-.76-1.22-1.36-1.66-.69-.51-1.47-.74-2.35-.74-1.41,0-2.44.46-3.18,1.24-.85.9-1.31,2.21-1.31,3.64,0,1.75.64,2.88,1.29,3.53.9.92,1.94,1.2,3.11,1.2,1.52,0,2.33-.53,2.67-.83.12-.09.81-.69,1.11-1.82h-3.71v-2.86Z"/>
        <path class="cls-2" d="M322.77,146.52h3.32v10.28h-3.32v-1.24c-.9,1.38-2.19,1.59-3.04,1.59-1.47,0-2.72-.37-3.85-1.57-1.08-1.15-1.5-2.49-1.5-3.85,0-1.73.64-3.2,1.59-4.15.9-.9,2.14-1.41,3.57-1.41.88,0,2.28.21,3.23,1.5v-1.15ZM318.55,149.77c-.35.35-.76.94-.76,1.87s.39,1.52.69,1.84c.46.48,1.17.81,1.96.81.67,0,1.29-.28,1.73-.71.44-.42.81-1.06.81-1.94,0-.74-.28-1.43-.76-1.89-.51-.48-1.24-.71-1.84-.71-.71,0-1.38.3-1.82.74Z"/>
        <path class="cls-2" d="M328.67,146.52h3.32v1.2c.85-1.29,2.1-1.45,2.88-1.45.44,0,1.24.05,1.94.46.53.3.97.81,1.24,1.43.25-.41.65-.9,1.31-1.31.71-.44,1.38-.58,2.19-.58,1.24,0,2.26.37,2.88.97.99.94,1.06,2.33,1.06,3.06v6.5h-3.32v-5.21c0-.53,0-1.45-.44-2-.28-.35-.71-.55-1.2-.55-.55,0-1.01.25-1.29.62-.44.55-.51,1.36-.51,2.03v5.12h-3.32v-5.35c0-.69-.02-1.5-.53-2-.35-.35-.76-.41-1.11-.41-.44,0-.83.12-1.15.41-.62.6-.64,1.75-.64,2.1v5.25h-3.32v-10.28Z"/>
        <path class="cls-2" d="M348.1,146.52h3.32v1.2c.85-1.29,2.1-1.45,2.88-1.45.44,0,1.24.05,1.94.46.53.3.97.81,1.24,1.43.25-.41.65-.9,1.31-1.31.71-.44,1.38-.58,2.19-.58,1.24,0,2.26.37,2.88.97.99.94,1.06,2.33,1.06,3.06v6.5h-3.32v-5.21c0-.53,0-1.45-.44-2-.28-.35-.71-.55-1.2-.55-.55,0-1.01.25-1.29.62-.44.55-.51,1.36-.51,2.03v5.12h-3.32v-5.35c0-.69-.02-1.5-.53-2-.35-.35-.76-.41-1.11-.41-.44,0-.83.12-1.15.41-.62.6-.64,1.75-.64,2.1v5.25h-3.32v-10.28Z"/>
        <path class="cls-2" d="M375.4,146.52h3.32v10.28h-3.32v-1.24c-.9,1.38-2.19,1.59-3.04,1.59-1.47,0-2.72-.37-3.85-1.57-1.08-1.15-1.5-2.49-1.5-3.85,0-1.73.64-3.2,1.59-4.15.9-.9,2.14-1.41,3.57-1.41.88,0,2.28.21,3.23,1.5v-1.15ZM371.19,149.77c-.35.35-.76.94-.76,1.87s.39,1.52.69,1.84c.46.48,1.17.81,1.96.81.67,0,1.29-.28,1.73-.71.44-.42.81-1.06.81-1.94,0-.74-.28-1.43-.76-1.89-.51-.48-1.24-.71-1.84-.71-.71,0-1.38.3-1.82.74Z"/>
        <path class="cls-2" d="M394.32,150.07c-1.04-1.01-2.05-1.2-2.74-1.2-1.06,0-1.73.44-2.14.85-.42.41-.83,1.15-.83,2.24s.44,1.89.88,2.33c.51.48,1.22.78,2.05.78.92,0,2-.37,2.79-1.24v2.51c-.55.35-1.45.76-2.95.76-1.61,0-2.76-.46-3.69-1.43-.69-.71-1.38-1.87-1.38-3.64s.76-3.04,1.47-3.76c.76-.76,1.98-1.43,3.89-1.43.74,0,1.61.12,2.65.69v2.53Z"/>
        <path class="cls-2" d="M406.35,151.96c0,2.97-2.26,5.14-5.18,5.14s-5.18-2.17-5.18-5.14,2.26-5.12,5.18-5.12,5.18,2.12,5.18,5.12ZM404.05,151.98c0-2.21-1.45-3.11-2.88-3.11s-2.88.9-2.88,3.11c0,1.87,1.11,3.09,2.88,3.09s2.88-1.22,2.88-3.09Z"/>
        <path class="cls-2" d="M408.7,147.09h2.26v.9c.76-.92,1.66-1.15,2.4-1.15,1.01,0,1.96.48,2.51,1.43.81-1.15,2.03-1.43,2.88-1.43,1.18,0,2.21.55,2.76,1.52.18.32.51,1.04.51,2.44v5.99h-2.26v-5.35c0-1.08-.11-1.52-.21-1.73-.14-.37-.48-.85-1.29-.85-.55,0-1.04.3-1.34.71-.39.55-.44,1.38-.44,2.21v5h-2.26v-5.35c0-1.08-.12-1.52-.21-1.73-.14-.37-.48-.85-1.29-.85-.55,0-1.04.3-1.34.71-.39.55-.44,1.38-.44,2.21v5h-2.26v-9.7Z"/>
        <path class="cls-2" d="M427.14,162.07h-2.26v-14.97h2.26v1.06c.83-.99,1.91-1.31,2.88-1.31,2.56,0,4.72,1.96,4.72,5.05,0,3.27-2.4,5.21-4.7,5.21-.53,0-1.89-.18-2.9-1.43v6.4ZM427,152c0,2.03,1.31,3.06,2.74,3.06,1.64,0,2.7-1.41,2.7-3.09s-1.06-3.11-2.7-3.11c-1.43,0-2.74,1.01-2.74,3.13Z"/>
        <path class="cls-2" d="M444.19,147.09h2.26v9.7h-2.26v-1.01c-.99,1.15-2.21,1.31-2.9,1.31-3,0-4.7-2.49-4.7-5.16,0-3.16,2.17-5.09,4.72-5.09.71,0,1.96.18,2.88,1.38v-1.13ZM438.89,151.98c0,1.68,1.06,3.09,2.7,3.09,1.43,0,2.74-1.04,2.74-3.06s-1.31-3.13-2.74-3.13c-1.64,0-2.7,1.38-2.7,3.11Z"/>
        <path class="cls-2" d="M449.29,147.09h2.26v.9c.97-1.08,2.07-1.15,2.63-1.15,1.8,0,2.56.9,2.86,1.31.37.53.6,1.2.6,2.7v5.94h-2.26v-5.39c0-2.46-.92-2.53-1.77-2.53-1.01,0-2.05.14-2.05,3.27v4.65h-2.26v-9.7Z"/>
        <path class="cls-2" d="M463.34,155.27l-4.15-8.18h2.72l2.76,5.67,2.81-5.67h2.53l-7.72,14.97h-2.53l3.57-6.8Z"/>
      </g>
    </g>
  </g>
</svg>